<svg width="24" height="24" viewBox="0 0 24 24" fill="none" xmlns="http://www.w3.org/2000/svg">
<g id="Icon / Filter">
<path id="Vector" d="M15 19.88C15.04 20.18 14.94 20.5 14.71 20.71C14.32 21.1 13.69 21.1 13.3 20.71L9.28999 16.7C9.05999 16.47 8.95999 16.16 8.99999 15.87V10.75L4.21 4.62C3.87 4.19 3.95 3.56 4.38 3.22C4.57 3.08 4.77999 3 4.99999 3H19C19.22 3 19.43 3.08 19.62 3.22C20.05 3.56 20.13 4.19 19.79 4.62L15 10.75V19.88ZM7.03999 5L11 10.06V15.58L13 17.58V10.05L16.96 5H7.03999Z" fill="#92140C"/>
</g>
</svg>
