<svg width="25" height="25" viewBox="0 0 25 25" fill="none" xmlns="http://www.w3.org/2000/svg">
<g id="Icon / Dots-vertical">
<path id="Vector" d="M12.944 16.8321C13.4745 16.8321 13.9832 17.0428 14.3582 17.4178C14.7333 17.7929 14.944 18.3016 14.944 18.8321C14.944 19.3625 14.7333 19.8712 14.3582 20.2463C13.9832 20.6213 13.4745 20.8321 12.944 20.8321C12.4136 20.8321 11.9049 20.6213 11.5298 20.2463C11.1547 19.8712 10.944 19.3625 10.944 18.8321C10.944 18.3016 11.1547 17.7929 11.5298 17.4178C11.9049 17.0428 12.4136 16.8321 12.944 16.8321ZM12.944 10.8321C13.4745 10.8321 13.9832 11.0428 14.3582 11.4178C14.7333 11.7929 14.944 12.3016 14.944 12.8321C14.944 13.3625 14.7333 13.8712 14.3582 14.2463C13.9832 14.6213 13.4745 14.8321 12.944 14.8321C12.4136 14.8321 11.9049 14.6213 11.5298 14.2463C11.1547 13.8712 10.944 13.3625 10.944 12.8321C10.944 12.3016 11.1547 11.7929 11.5298 11.4178C11.9049 11.0428 12.4136 10.8321 12.944 10.8321ZM12.944 4.83206C13.4745 4.83206 13.9832 5.04278 14.3582 5.41785C14.7333 5.79292 14.944 6.30163 14.944 6.83206C14.944 7.36249 14.7333 7.8712 14.3582 8.24628C13.9832 8.62135 13.4745 8.83206 12.944 8.83206C12.4136 8.83206 11.9049 8.62135 11.5298 8.24628C11.1547 7.8712 10.944 7.36249 10.944 6.83206C10.944 6.30163 11.1547 5.79292 11.5298 5.41785C11.9049 5.04278 12.4136 4.83206 12.944 4.83206Z" fill="black"/>
</g>
</svg>
